<svg width="35" height="31" viewBox="0 0 35 31" fill="none" xmlns="http://www.w3.org/2000/svg">
<path d="M37.6606 29.9957L59.4978 8.5634C60.4541 7.62266 60.9913 6.34674 60.9913 5.01632C60.9913 3.68591 60.4541 2.40999 59.4978 1.46925C58.5415 0.528504 57.2445 0 55.8921 0C54.5397 0 53.2427 0.528504 52.2864 1.46925L30.5 22.9515L8.71355 1.46925C7.75727 0.528504 6.46026 -9.91233e-09 5.10787 0C3.75548 9.91234e-09 2.45848 0.528504 1.50219 1.46925C0.545903 2.40999 0.00866685 3.68591 0.00866684 5.01632C0.00866683 6.34674 0.545903 7.62266 1.50219 8.5634L23.3394 29.9957L1.50219 51.4281C1.0262 51.8925 0.648392 52.4451 0.390567 53.0538C0.132742 53.6626 0 54.3156 0 54.9751C0 55.6347 0.132742 56.2877 0.390567 56.8964C0.648392 57.5052 1.0262 58.0578 1.50219 58.5222C1.9743 58.9905 2.53597 59.3621 3.15483 59.6158C3.77368 59.8694 4.43746 60 5.10787 60C5.77828 60 6.44206 59.8694 7.06092 59.6158C7.67977 59.3621 8.24145 58.9905 8.71355 58.5222L30.5 37.0399L52.2864 58.5222C52.7586 58.9905 53.3202 59.3621 53.9391 59.6158C54.5579 59.8694 55.2217 60 55.8921 60C56.5625 60 57.2263 59.8694 57.8452 59.6158C58.464 59.3621 59.0257 58.9905 59.4978 58.5222C59.9738 58.0578 60.3516 57.5052 60.6094 56.8964C60.8673 56.2877 61 55.6347 61 54.9751C61 54.3156 60.8673 53.6626 60.6094 53.0538C60.3516 52.4451 59.9738 51.8925 59.4978 51.4281L37.6606 29.9957Z" fill="white" fill-opacity="0.333333"/>
</svg>
