<svg width="47" height="41" viewBox="0 0 47 41" fill="none" xmlns="http://www.w3.org/2000/svg">
<path d="M26.2612 20.5L34.6821 13.1713C35.0508 12.8496 35.258 12.4133 35.258 11.9583C35.258 11.5034 35.0508 11.0671 34.6821 10.7454C34.3133 10.4237 33.8132 10.243 33.2917 10.243C32.7702 10.243 32.27 10.4237 31.9013 10.7454L23.5 18.0913L15.0987 10.7454C14.73 10.4237 14.2298 10.243 13.7083 10.243C13.1868 10.243 12.6867 10.4237 12.3179 10.7454C11.9492 11.0671 11.742 11.5034 11.742 11.9583C11.742 12.4133 11.9492 12.8496 12.3179 13.1713L20.7388 20.5L12.3179 27.8288C12.1344 27.9876 11.9887 28.1765 11.8893 28.3847C11.7898 28.5929 11.7386 28.8161 11.7386 29.0417C11.7386 29.2672 11.7898 29.4905 11.8893 29.6987C11.9887 29.9068 12.1344 30.0958 12.3179 30.2546C12.5 30.4147 12.7166 30.5418 12.9552 30.6285C13.1938 30.7153 13.4498 30.7599 13.7083 30.7599C13.9669 30.7599 14.2228 30.7153 14.4615 30.6285C14.7001 30.5418 14.9167 30.4147 15.0987 30.2546L23.5 22.9088L31.9013 30.2546C32.0833 30.4147 32.2999 30.5418 32.5385 30.6285C32.7772 30.7153 33.0331 30.7599 33.2917 30.7599C33.5502 30.7599 33.8062 30.7153 34.0448 30.6285C34.2834 30.5418 34.5 30.4147 34.6821 30.2546C34.8656 30.0958 35.0113 29.9068 35.1107 29.6987C35.2102 29.4905 35.2614 29.2672 35.2614 29.0417C35.2614 28.8161 35.2102 28.5929 35.1107 28.3847C35.0113 28.1765 34.8656 27.9876 34.6821 27.8288L26.2612 20.5Z" fill="white" fill-opacity="0.333333"/>
</svg>
